<mxfile host="Electron" agent="Mozilla/5.0 (Windows NT 10.0; Win64; x64) AppleWebKit/537.36 (KHTML, like Gecko) draw.io/24.7.8 Chrome/128.0.6613.36 Electron/32.0.1 Safari/537.36" version="24.7.8">
  <diagram name="Page-1" id="vwp1jZDT_qWsAFFD4D8j">
    <mxGraphModel dx="1649" dy="1263" grid="1" gridSize="10" guides="1" tooltips="1" connect="1" arrows="1" fold="1" page="0" pageScale="1" pageWidth="850" pageHeight="1100" math="0" shadow="0">
      <root>
        <mxCell id="0" />
        <mxCell id="1" parent="0" />
        <mxCell id="vw9KTwZy-z8zxhLxCjxY-28" value="" style="rounded=1;whiteSpace=wrap;html=1;sketch=1;hachureGap=4;jiggle=2;curveFitting=1;fontFamily=Architects Daughter;fontSource=https%3A%2F%2Ffonts.googleapis.com%2Fcss%3Ffamily%3DArchitects%2BDaughter;rotation=90;fillColor=none;dashed=1;" vertex="1" parent="1">
          <mxGeometry x="350" y="388.38" width="321.25" height="122.5" as="geometry" />
        </mxCell>
        <mxCell id="vw9KTwZy-z8zxhLxCjxY-29" style="edgeStyle=orthogonalEdgeStyle;rounded=0;sketch=1;hachureGap=4;jiggle=2;curveFitting=1;orthogonalLoop=1;jettySize=auto;html=1;entryX=0.5;entryY=1;entryDx=0;entryDy=0;fontFamily=Architects Daughter;fontSource=https%3A%2F%2Ffonts.googleapis.com%2Fcss%3Ffamily%3DArchitects%2BDaughter;curved=1;" edge="1" parent="1" source="vw9KTwZy-z8zxhLxCjxY-1" target="vw9KTwZy-z8zxhLxCjxY-8">
          <mxGeometry relative="1" as="geometry" />
        </mxCell>
        <mxCell id="vw9KTwZy-z8zxhLxCjxY-1" value="" style="shape=actor;whiteSpace=wrap;html=1;sketch=1;hachureGap=4;jiggle=2;curveFitting=1;fontFamily=Architects Daughter;fontSource=https%3A%2F%2Ffonts.googleapis.com%2Fcss%3Ffamily%3DArchitects%2BDaughter;fillColor=none;" vertex="1" parent="1">
          <mxGeometry x="486.87" y="304" width="40" height="60" as="geometry" />
        </mxCell>
        <mxCell id="vw9KTwZy-z8zxhLxCjxY-2" value="" style="strokeWidth=1;shadow=0;dashed=0;align=center;html=1;shape=mxgraph.mockup.containers.browserWindow;rSize=0;strokeColor=#666666;strokeColor2=#008cff;strokeColor3=#c4c4c4;mainText=,;recursiveResize=0;sketch=1;hachureGap=4;jiggle=2;curveFitting=1;fontFamily=Architects Daughter;fontSource=https%3A%2F%2Ffonts.googleapis.com%2Fcss%3Ffamily%3DArchitects%2BDaughter;" vertex="1" parent="1">
          <mxGeometry x="930.0799999999999" y="1111.17" width="550" height="380" as="geometry" />
        </mxCell>
        <mxCell id="vw9KTwZy-z8zxhLxCjxY-3" value="Page 1" style="strokeWidth=1;shadow=0;dashed=0;align=center;html=1;shape=mxgraph.mockup.containers.anchor;fontSize=17;fontColor=#666666;align=left;whiteSpace=wrap;sketch=1;hachureGap=4;jiggle=2;curveFitting=1;fontFamily=Architects Daughter;fontSource=https%3A%2F%2Ffonts.googleapis.com%2Fcss%3Ffamily%3DArchitects%2BDaughter;" vertex="1" parent="vw9KTwZy-z8zxhLxCjxY-2">
          <mxGeometry x="60" y="12" width="110" height="26" as="geometry" />
        </mxCell>
        <mxCell id="vw9KTwZy-z8zxhLxCjxY-4" value="https://www.draw.io" style="strokeWidth=1;shadow=0;dashed=0;align=center;html=1;shape=mxgraph.mockup.containers.anchor;rSize=0;fontSize=17;fontColor=#666666;align=left;sketch=1;hachureGap=4;jiggle=2;curveFitting=1;fontFamily=Architects Daughter;fontSource=https%3A%2F%2Ffonts.googleapis.com%2Fcss%3Ffamily%3DArchitects%2BDaughter;" vertex="1" parent="vw9KTwZy-z8zxhLxCjxY-2">
          <mxGeometry x="130" y="60" width="250" height="26" as="geometry" />
        </mxCell>
        <mxCell id="vw9KTwZy-z8zxhLxCjxY-8" value="Nginx" style="rounded=1;whiteSpace=wrap;html=1;sketch=1;hachureGap=4;jiggle=2;curveFitting=1;fontFamily=Helvetica;rotation=90;fillColor=#d5e8d4;strokeColor=#82b366;fontStyle=1" vertex="1" parent="1">
          <mxGeometry x="780" y="390" width="120" height="60" as="geometry" />
        </mxCell>
        <mxCell id="vw9KTwZy-z8zxhLxCjxY-11" value="" style="rounded=1;whiteSpace=wrap;html=1;sketch=1;hachureGap=4;jiggle=2;curveFitting=1;fontFamily=Architects Daughter;fontSource=https%3A%2F%2Ffonts.googleapis.com%2Fcss%3Ffamily%3DArchitects%2BDaughter;fillColor=none;" vertex="1" parent="1">
          <mxGeometry x="990" y="240" width="410" height="380" as="geometry" />
        </mxCell>
        <mxCell id="vw9KTwZy-z8zxhLxCjxY-12" value="Users" style="rounded=1;whiteSpace=wrap;html=1;sketch=1;hachureGap=4;jiggle=2;curveFitting=1;fontFamily=Helvetica;fillColor=#f8cecc;fontStyle=1;fontSize=15;strokeColor=#b85450;" vertex="1" parent="1">
          <mxGeometry x="1225" y="280" width="146.67" height="44" as="geometry" />
        </mxCell>
        <mxCell id="vw9KTwZy-z8zxhLxCjxY-14" value="Suppliers" style="rounded=1;whiteSpace=wrap;html=1;sketch=1;hachureGap=4;jiggle=2;curveFitting=1;fontFamily=Helvetica;fillColor=#f8cecc;fontStyle=1;fontSize=15;strokeColor=#b85450;" vertex="1" parent="1">
          <mxGeometry x="1225" y="344" width="146.67" height="44" as="geometry" />
        </mxCell>
        <mxCell id="vw9KTwZy-z8zxhLxCjxY-15" value="Orders" style="rounded=1;whiteSpace=wrap;html=1;sketch=1;hachureGap=4;jiggle=2;curveFitting=1;fontFamily=Helvetica;fillColor=#f8cecc;fontStyle=1;fontSize=15;strokeColor=#b85450;" vertex="1" parent="1">
          <mxGeometry x="1225" y="414" width="146.67" height="44" as="geometry" />
        </mxCell>
        <mxCell id="vw9KTwZy-z8zxhLxCjxY-16" value="Porducts" style="rounded=1;whiteSpace=wrap;html=1;sketch=1;hachureGap=4;jiggle=2;curveFitting=1;fontFamily=Helvetica;fillColor=#f8cecc;fontStyle=1;fontSize=15;strokeColor=#b85450;" vertex="1" parent="1">
          <mxGeometry x="1030" y="280" width="146.67" height="44" as="geometry" />
        </mxCell>
        <mxCell id="vw9KTwZy-z8zxhLxCjxY-17" value="Categories" style="rounded=1;whiteSpace=wrap;html=1;sketch=1;hachureGap=4;jiggle=2;curveFitting=1;fontFamily=Helvetica;fillColor=#f8cecc;fontStyle=1;fontSize=15;strokeColor=#b85450;" vertex="1" parent="1">
          <mxGeometry x="1030" y="350" width="146.67" height="44" as="geometry" />
        </mxCell>
        <mxCell id="vw9KTwZy-z8zxhLxCjxY-18" value="Stocks" style="rounded=1;whiteSpace=wrap;html=1;sketch=1;hachureGap=4;jiggle=2;curveFitting=1;fontFamily=Helvetica;fillColor=#f8cecc;fontStyle=1;fontSize=15;strokeColor=#b85450;" vertex="1" parent="1">
          <mxGeometry x="1030" y="420" width="146.67" height="44" as="geometry" />
        </mxCell>
        <mxCell id="vw9KTwZy-z8zxhLxCjxY-19" value="Sections" style="rounded=1;whiteSpace=wrap;html=1;sketch=1;hachureGap=4;jiggle=2;curveFitting=1;fontFamily=Helvetica;fillColor=#f8cecc;fontStyle=1;fontSize=15;strokeColor=#b85450;" vertex="1" parent="1">
          <mxGeometry x="1225" y="480" width="146.67" height="44" as="geometry" />
        </mxCell>
        <mxCell id="vw9KTwZy-z8zxhLxCjxY-20" value="Auth" style="rounded=1;whiteSpace=wrap;html=1;sketch=1;hachureGap=4;jiggle=2;curveFitting=1;fontFamily=Helvetica;fillColor=#f8cecc;fontStyle=1;fontSize=15;strokeColor=#b85450;" vertex="1" parent="1">
          <mxGeometry x="1030" y="490" width="146.67" height="44" as="geometry" />
        </mxCell>
        <mxCell id="vw9KTwZy-z8zxhLxCjxY-21" value="Warehouses" style="rounded=1;whiteSpace=wrap;html=1;sketch=1;hachureGap=4;jiggle=2;curveFitting=1;fontFamily=Helvetica;fillColor=#f8cecc;fontStyle=1;fontSize=15;strokeColor=#b85450;" vertex="1" parent="1">
          <mxGeometry x="1225" y="550" width="146.67" height="44" as="geometry" />
        </mxCell>
        <mxCell id="vw9KTwZy-z8zxhLxCjxY-22" style="edgeStyle=orthogonalEdgeStyle;rounded=0;sketch=1;hachureGap=4;jiggle=2;curveFitting=1;orthogonalLoop=1;jettySize=auto;html=1;entryX=0;entryY=0.475;entryDx=0;entryDy=0;entryPerimeter=0;fontFamily=Architects Daughter;fontSource=https%3A%2F%2Ffonts.googleapis.com%2Fcss%3Ffamily%3DArchitects%2BDaughter;strokeWidth=3;" edge="1" parent="1" source="vw9KTwZy-z8zxhLxCjxY-8" target="vw9KTwZy-z8zxhLxCjxY-11">
          <mxGeometry relative="1" as="geometry" />
        </mxCell>
        <mxCell id="vw9KTwZy-z8zxhLxCjxY-30" style="edgeStyle=entityRelationEdgeStyle;rounded=0;sketch=1;hachureGap=4;jiggle=2;curveFitting=1;orthogonalLoop=1;jettySize=auto;html=1;entryX=0.5;entryY=1;entryDx=0;entryDy=0;fontFamily=Architects Daughter;fontSource=https%3A%2F%2Ffonts.googleapis.com%2Fcss%3Ffamily%3DArchitects%2BDaughter;" edge="1" parent="1" source="vw9KTwZy-z8zxhLxCjxY-23" target="vw9KTwZy-z8zxhLxCjxY-8">
          <mxGeometry relative="1" as="geometry" />
        </mxCell>
        <mxCell id="vw9KTwZy-z8zxhLxCjxY-23" value="" style="shape=actor;whiteSpace=wrap;html=1;sketch=1;hachureGap=4;jiggle=2;curveFitting=1;fontFamily=Architects Daughter;fontSource=https%3A%2F%2Ffonts.googleapis.com%2Fcss%3Ffamily%3DArchitects%2BDaughter;fillColor=none;" vertex="1" parent="1">
          <mxGeometry x="486.87" y="404" width="40" height="60" as="geometry" />
        </mxCell>
        <mxCell id="vw9KTwZy-z8zxhLxCjxY-32" style="edgeStyle=orthogonalEdgeStyle;rounded=0;sketch=1;hachureGap=4;jiggle=2;curveFitting=1;orthogonalLoop=1;jettySize=auto;html=1;entryX=0.5;entryY=1;entryDx=0;entryDy=0;fontFamily=Architects Daughter;fontSource=https%3A%2F%2Ffonts.googleapis.com%2Fcss%3Ffamily%3DArchitects%2BDaughter;curved=1;" edge="1" parent="1" source="vw9KTwZy-z8zxhLxCjxY-24" target="vw9KTwZy-z8zxhLxCjxY-8">
          <mxGeometry relative="1" as="geometry" />
        </mxCell>
        <mxCell id="vw9KTwZy-z8zxhLxCjxY-24" value="" style="shape=actor;whiteSpace=wrap;html=1;sketch=1;hachureGap=4;jiggle=2;curveFitting=1;fontFamily=Architects Daughter;fontSource=https%3A%2F%2Ffonts.googleapis.com%2Fcss%3Ffamily%3DArchitects%2BDaughter;fillColor=none;" vertex="1" parent="1">
          <mxGeometry x="486.87" y="504" width="40" height="60" as="geometry" />
        </mxCell>
        <mxCell id="vw9KTwZy-z8zxhLxCjxY-25" value="Client" style="text;html=1;align=center;verticalAlign=middle;resizable=0;points=[];autosize=1;strokeColor=none;fillColor=none;fontFamily=Helvetica;fontStyle=1" vertex="1" parent="1">
          <mxGeometry x="481.87" y="364" width="50" height="30" as="geometry" />
        </mxCell>
        <mxCell id="vw9KTwZy-z8zxhLxCjxY-26" value="Client" style="text;html=1;align=center;verticalAlign=middle;resizable=0;points=[];autosize=1;strokeColor=none;fillColor=none;fontFamily=Helvetica;fontStyle=1" vertex="1" parent="1">
          <mxGeometry x="481.87" y="464" width="50" height="30" as="geometry" />
        </mxCell>
        <mxCell id="vw9KTwZy-z8zxhLxCjxY-27" value="Client" style="text;html=1;align=center;verticalAlign=middle;resizable=0;points=[];autosize=1;strokeColor=none;fillColor=none;fontFamily=Helvetica;fontStyle=1" vertex="1" parent="1">
          <mxGeometry x="481.87" y="564" width="50" height="30" as="geometry" />
        </mxCell>
        <mxCell id="vw9KTwZy-z8zxhLxCjxY-33" value="&lt;span style=&quot;font-size: 17px;&quot;&gt;&lt;font style=&quot;font-size: 17px;&quot;&gt;Postgres&lt;/font&gt;&lt;/span&gt;" style="shape=cylinder3;whiteSpace=wrap;html=1;boundedLbl=1;backgroundOutline=1;size=15;sketch=1;hachureGap=4;jiggle=2;curveFitting=1;fontFamily=Helvetica;fontStyle=1;fontSize=17;fillColor=#dae8fc;strokeColor=#6c8ebf;" vertex="1" parent="1">
          <mxGeometry x="1590" y="350" width="105" height="140" as="geometry" />
        </mxCell>
        <mxCell id="vw9KTwZy-z8zxhLxCjxY-34" style="edgeStyle=orthogonalEdgeStyle;rounded=0;sketch=1;hachureGap=4;jiggle=2;curveFitting=1;orthogonalLoop=1;jettySize=auto;html=1;entryX=0;entryY=0.5;entryDx=0;entryDy=0;entryPerimeter=0;fontFamily=Architects Daughter;fontSource=https%3A%2F%2Ffonts.googleapis.com%2Fcss%3Ffamily%3DArchitects%2BDaughter;strokeWidth=3;exitX=1.006;exitY=0.475;exitDx=0;exitDy=0;exitPerimeter=0;" edge="1" parent="1" source="vw9KTwZy-z8zxhLxCjxY-11" target="vw9KTwZy-z8zxhLxCjxY-33">
          <mxGeometry relative="1" as="geometry" />
        </mxCell>
      </root>
    </mxGraphModel>
  </diagram>
</mxfile>
